<svg width="428" height="378" viewBox="0 0 428 378" fill="none" xmlns="http://www.w3.org/2000/svg">
<path d="M213.052 283.037H213.942C215.735 282.968 219.652 282.842 220.726 282.842C222.073 282.842 224.335 285.777 222.302 288.484C220.269 291.19 218.876 294.354 215.987 295.028C213.097 295.701 213.497 297.517 211.419 299.767C209.34 302.017 203.744 302.485 200.809 301.8C197.874 301.114 200.581 286.451 201.038 285.812C201.495 285.172 206.496 288.461 213.052 283.037Z" fill="white" stroke="#263238" stroke-linecap="round" stroke-linejoin="round"/>
<path d="M215.987 295.005C218.921 294.331 220.269 291.168 222.302 288.461C222.716 287.945 222.984 287.327 223.076 286.672C223.169 286.017 223.083 285.349 222.827 284.738C222.061 287.465 220.55 289.925 218.465 291.841C216.432 293.429 214.856 292.527 213.725 293.874C212.595 295.222 211.441 297.94 205.594 297.94C203.541 297.979 201.492 297.729 199.507 297.197C199.507 299.63 199.839 301.548 200.855 301.765C203.79 302.451 209.431 301.994 211.464 299.733C213.497 297.471 213.052 295.678 215.987 295.005Z" fill="white" stroke="#263238" stroke-linecap="round" stroke-linejoin="round"/>
<path d="M251.651 291.396C251.651 291.396 250.977 299.527 251.423 301.103C251.868 302.679 256.39 304.266 258.88 303.81C261.37 303.353 265.88 300.201 265.88 300.201C265.88 300.201 275.816 296.364 279.425 294.103C283.033 291.841 284.164 289.135 281.457 288.461C278.751 287.787 269.718 285.971 267.011 285.298C264.304 284.624 264.293 287.102 258.423 288.461C252.553 289.82 251.651 291.396 251.651 291.396Z" fill="white" stroke="#263238" stroke-linecap="round" stroke-linejoin="round"/>
<path d="M280.11 291.396C274.809 294.413 269.302 297.054 263.631 299.299C259.684 300.923 255.262 300.964 251.286 299.413C251.281 299.98 251.331 300.546 251.434 301.103C251.891 302.679 256.402 304.266 258.891 303.81C261.381 303.353 265.892 300.201 265.892 300.201C265.892 300.201 275.827 296.364 279.436 294.103C282.519 292.173 283.787 289.923 282.405 288.884C281.864 289.901 281.074 290.765 280.11 291.396V291.396Z" fill="white" stroke="#263238" stroke-linecap="round" stroke-linejoin="round"/>
<path d="M211.875 132.087C211.875 132.087 209.306 146.488 208.392 154.562C207.479 162.635 205.332 182.7 205.332 192.305C205.332 201.909 204.738 219.347 204.738 219.347C204.738 219.347 203.858 226.336 202.34 232.651C200.821 238.967 200.158 250.981 200.375 256.873C200.592 262.766 200.592 279.119 200.592 279.119C200.473 281.021 200.473 282.928 200.592 284.829C200.809 287.011 201.243 289.626 203.424 289.626C205.606 289.626 209.534 289.626 211.064 288.324C213.035 286.428 214.204 283.849 214.331 281.118C214.548 277.852 215.473 266.717 215.644 264.102C215.815 261.487 223.501 229.203 224.369 222.442C225.237 215.681 225.682 211.97 225.682 211.97L233.745 169.647L236.154 170.081C236.154 170.081 249.858 221.563 249.858 225.057C249.858 228.552 248.328 244.471 250.075 253.413C251.822 262.355 251.56 292.869 251.56 292.869C252.437 293.824 253.571 294.506 254.826 294.833C256.79 295.267 262.466 293.954 264.647 290.471C266.828 286.988 267.696 280.65 267.696 278.902C267.696 277.155 269.66 241.388 269.66 232.218C269.66 223.047 268.793 211.936 268.793 211.056C268.793 210.177 266.611 168.745 265.96 165.034C265.309 161.322 257.886 131.219 257.886 131.219C257.886 131.219 235.218 137.98 211.875 132.087Z" fill="#263238" stroke="#263238" stroke-linecap="round" stroke-linejoin="round"/>
<path d="M192.678 100.02C192.678 100.02 189.846 107.226 189.412 110.926C188.978 114.626 191.376 121.398 193.558 122.711C195.739 124.024 202.933 121.181 204.03 119.434C205.126 117.686 210.128 106.346 210.128 106.346C203.849 105.843 197.821 103.658 192.678 100.02V100.02Z" fill="white" stroke="#263238" stroke-linecap="round" stroke-linejoin="round"/>
<path d="M261.689 104.428L253.09 142.559H258.697L266.931 103.674L261.689 104.428Z" fill="#263238" stroke="#263238" stroke-linecap="round" stroke-linejoin="round"/>
<path d="M268.69 74.3817C268.69 74.3817 272.801 73.6394 273.92 74.3817C275.039 75.124 275.062 78.8697 275.062 80.3658C275.062 81.8618 273.92 85.973 274.32 87.8458C274.72 89.7187 281.058 98.5578 283.673 104.176C286.288 109.795 282.931 118.748 279.939 122.448C276.946 126.149 270.951 112.856 269.078 108.368C267.205 103.88 264.225 76.2089 264.225 76.2089L268.69 74.3817Z" fill="white" stroke="#263238" stroke-linecap="round" stroke-linejoin="round"/>
<path d="M276.684 97.6557C276.684 97.6557 282.622 107.808 282.839 111.086C283.056 114.363 281.526 121.364 280.007 123.739C278.488 126.114 274.56 124.07 271.716 122.54C269.083 121.22 266.997 119.017 265.823 116.316C264.51 113.484 260.981 106.381 260.981 106.381C260.981 106.381 270.586 103.765 276.684 97.6557Z" fill="white" stroke="#263238" stroke-linecap="round" stroke-linejoin="round"/>
<path d="M223.215 55.1276C220.469 55.7715 217.827 56.8019 215.37 58.1881C211.658 60.3694 205.766 64.7318 203.801 68.2149C201.837 71.698 195.956 86.761 193.112 92.4367C190.269 98.1125 189.412 100.065 189.412 100.065C189.412 100.065 192.838 105.09 197.475 107.054C202.111 109.019 210.128 109.453 210.128 109.453C210.128 109.453 211.27 131.699 211.875 134.976C212.481 138.254 219.949 140.207 230.855 140.686C241.761 141.166 257.03 137.203 258.994 134.976C260.958 132.749 258.343 109.453 258.343 109.453C261.892 108.93 265.393 108.128 268.815 107.054C273.178 105.524 278.854 98.1011 278.854 98.1011C278.854 98.1011 270.997 78.904 269.466 75.6379C267.936 72.3718 269.032 71.0699 262.923 66.6961C259.023 63.9513 254.856 61.6059 250.486 59.6956C250.486 59.6956 241.35 55.3332 233.687 54.4652C226.025 53.5973 223.215 55.1276 223.215 55.1276Z" fill="white" stroke="#263238" stroke-linecap="round" stroke-linejoin="round"/>
<path d="M254.849 25.4356C254.849 25.4356 257.247 26.7489 257.247 28.0622C257.247 29.3755 254.632 32.2076 254.632 32.2076C254.865 34.2337 254.865 36.2799 254.632 38.3059C254.198 40.4872 256.379 42.8739 254.632 44.4156C252.885 45.9573 247.654 45.9459 247.654 45.9459L246.124 55.5501L226.493 52.9235L225.842 46.8138C225.842 46.8138 220.6 42.4514 218.853 37.6778C217.106 32.9043 217.334 31.5681 217.711 28.5418C218.088 25.5155 221.422 19.1546 227.989 17.6357C233.734 16.2634 239.73 16.3379 245.439 17.8527C250.052 19.0861 254.849 25.4356 254.849 25.4356Z" fill="white" stroke="#263238" stroke-linecap="round" stroke-linejoin="round"/>
<path d="M246.101 40.521V40.4643V40.521Z" fill="white" stroke="#263238" stroke-linecap="round" stroke-linejoin="round"/>
<path d="M240.46 45.4891C242.847 44.5173 244.835 42.7665 246.101 40.5214C246.021 40.6813 245.678 41.1267 244.605 41.1267C243.292 41.1267 240.231 38.7285 239.363 36.5587C238.495 34.3889 240.677 31.7509 242.195 31.7509C243.714 31.7509 245.907 34.8114 247.654 33.7151C249.401 32.6188 249.184 27.8338 249.184 27.8338C249.616 25.6288 250.274 23.4742 251.149 21.4043C249.535 19.795 247.585 18.5627 245.439 17.7956C239.73 16.2808 233.734 16.2063 227.989 17.5786C221.445 19.0975 218.168 25.4242 217.711 28.4847C217.254 31.5453 217.06 32.8472 218.853 37.6207C220.646 42.3943 225.842 46.7567 225.842 46.7567C229.542 47.0194 236.314 47.2364 240.46 45.4891Z" fill="#263238" stroke="#263238" stroke-linecap="round" stroke-linejoin="round"/>
<path d="M216.9 57.4801C216.9 57.4801 220.817 51.1534 222.781 50.2855C224.746 49.4176 238.929 49.4176 241.761 49.8516C244.594 50.2855 249.618 53.78 250.486 55.7443C251.354 57.7085 252.017 59.2274 252.017 59.2274V60.5407C252.017 60.5407 242.641 56.1782 233.745 56.1782C228.105 56.1999 222.476 56.635 216.9 57.4801Z" fill="white" stroke="#263238" stroke-linecap="round" stroke-linejoin="round"/>
<path d="M252.017 60.5406C250.187 64.4558 248.104 68.2476 245.781 71.8921C243.318 75.9073 241.398 80.2313 240.071 84.751L246.923 85.4591C246.923 85.4591 251.685 72.8971 254.54 68.7973C255.7 67.0476 256.974 65.3767 258.355 63.7953C258.355 63.7953 255.637 60.3693 252.017 60.5406Z" fill="#263238" stroke="#263238" stroke-linecap="round" stroke-linejoin="round"/>
<path d="M216.9 57.4801C216.9 57.4801 215.758 65.4741 216.261 69.7566C216.523 73.3987 216.523 77.0549 216.261 80.697L211.259 82.3643C211.259 82.3643 209.831 68.5575 210.311 65.4627C210.79 62.3679 211.259 60.2323 211.259 60.2323C211.259 60.2323 214.433 57.4116 216.9 57.4801Z" fill="#263238" stroke="#263238" stroke-linecap="round" stroke-linejoin="round"/>
<path d="M206.736 130.694C206.736 130.694 203.413 131.836 202.168 137.546C200.924 143.256 204.315 149.457 211.213 152.312C218.111 155.167 229.314 156.594 239.763 157.074C250.212 157.554 258.8 156.594 262.603 149.925C266.406 143.256 264.978 136.118 260.456 134.931C255.934 133.743 250.932 136.358 233.562 134.691C224.541 133.956 215.579 132.621 206.736 130.694V130.694Z" fill="#257146" stroke="#263238" stroke-linecap="round" stroke-linejoin="round"/>
<path d="M248.739 138.928C244.342 144.055 243.246 156.514 252.039 156.514H252.485C257.053 155.601 260.582 153.671 262.683 149.982C265.641 144.797 265.424 139.327 263.06 136.598L259.52 134.211C257.489 134.173 255.474 134.575 253.613 135.389C251.752 136.203 250.09 137.41 248.739 138.928V138.928Z" fill="#257146" stroke="#263238" stroke-linecap="round" stroke-linejoin="round"/>
<path d="M254.049 145.642C254.049 145.642 253.878 149.285 258.195 147.926C259.212 147.52 260.094 146.835 260.741 145.95C261.387 145.066 261.771 144.017 261.849 142.925C261.885 142.656 261.904 142.385 261.906 142.114C261.963 140.286 261.324 138.688 260.022 138.311C257.03 137.477 249.744 142.947 249.744 146.933C249.744 150.919 254.392 152.243 258.537 149.582C262.683 146.922 263.848 144.112 263.517 137.477" stroke="#263238" stroke-linecap="round" stroke-linejoin="round"/>
<path d="M207.696 77.1339C207.696 77.1339 226.733 78.8012 236.976 79.0296C247.22 79.258 252.211 78.3216 255.248 81.6562C258.286 84.9909 262.1 120.69 263.813 127.119C265.527 133.549 262.671 135.456 255.488 138.071C248.305 140.686 236.919 140.686 223.821 138.071C210.722 135.456 205.012 133.503 203.584 127.793C202.157 122.083 203.116 103.743 203.116 93.533C203.116 83.3236 202.214 77.3737 207.696 77.1339Z" fill="#257146" stroke="#263238" stroke-linecap="round" stroke-linejoin="round"/>
<path d="M252.702 114.329C255.705 114.009 258.659 113.322 261.495 112.285C259.668 99.7227 257.35 83.826 255.34 81.6562C252.245 78.3216 247.243 79.2694 237.068 79.0296C226.893 78.7898 207.787 77.1339 207.787 77.1339C202.305 77.3737 203.219 83.3235 203.219 93.5559C203.219 97.7927 203.048 103.4 202.968 108.939C204.315 109.749 219.949 118.223 252.702 114.329Z" fill="#257146" stroke="#263238" stroke-linecap="round" stroke-linejoin="round"/>
<path d="M207.159 107.785C207.466 111.237 207.374 114.713 206.885 118.143C206.411 121.025 206.14 123.937 206.074 126.857L210.699 128.764C210.699 128.764 211.521 121.409 212.069 118.143C212.442 115.066 212.625 111.969 212.618 108.87L207.159 107.785Z" fill="#263238" stroke="#263238" stroke-linecap="round" stroke-linejoin="round"/>
<path d="M242.584 111.086C242.584 111.086 242.31 115.996 241.773 119.536C241.236 123.077 240.402 131.459 240.402 131.459H245.85C245.85 131.459 247.757 123.077 247.757 119.81C247.757 116.544 248.031 110.812 248.031 110.812L242.584 111.086Z" fill="#263238" stroke="#263238" stroke-linecap="round" stroke-linejoin="round"/>
<path d="M263.871 127.074C262.203 120.644 258.4 84.9452 255.306 81.6106C254.828 81.105 254.278 80.6739 253.673 80.3315C251.685 80.9711 248.762 82.547 250.064 86.1329C251.971 91.3632 253.878 117.081 252.919 125.166C251.96 133.252 246.729 137.078 251.491 138.973L251.754 139.076C253.041 138.816 254.308 138.465 255.545 138.025C262.683 135.456 265.538 133.549 263.871 127.074Z" fill="#257146" stroke="#263238" stroke-linecap="round" stroke-linejoin="round"/>
<path d="M233.688 169.613L224.357 167.112" stroke="white" stroke-linecap="round" stroke-linejoin="round"/>
<path d="M213.383 14.7351C213.383 14.7351 216.021 29.5811 216.021 31.3055C216.021 33.0299 216.455 33.4867 223.444 33.9207C230.433 34.3546 240.014 34.8 245.473 31.9679C250.932 29.1357 260.524 22.5806 262.489 18.2639C264.453 13.9471 263.14 13.2505 257.921 13.2505H251.377C251.377 13.2505 249.847 6.92379 245.667 4.95955C241.487 2.99531 234.978 -0.933179 228 2.12738C221.023 5.18794 215.815 6.63828 213.383 14.7351Z" fill="#257146" stroke="#263238" stroke-linecap="round" stroke-linejoin="round"/>
<path d="M249.835 28.4733C249.359 28.9257 248.992 29.4802 248.762 30.095C254.141 26.8403 260.878 21.7926 262.466 18.2182C264.43 13.8557 263.117 13.2048 257.898 13.2048H251.354C251.354 13.2048 253.318 19.5315 253.318 21.7127C253.318 23.8939 252.451 25.8581 249.835 28.4733Z" fill="#263238" stroke="#263238" stroke-linecap="round" stroke-linejoin="round"/>
<path d="M220.006 31.8765C220.006 31.8765 218.179 25.4927 221.525 24.8874C224.871 24.2822 228.526 32.4931 228.526 32.4931C225.672 32.8213 222.783 32.6122 220.006 31.8765V31.8765Z" fill="#263238" stroke="#263238" stroke-linecap="round" stroke-linejoin="round"/>
<path d="M350.501 179.649L343.516 179.416L339.321 305.206L346.306 305.439L350.501 179.649Z" fill="#263238" stroke="#263238" stroke-linecap="round" stroke-linejoin="round"/>
<path d="M378.794 144.351L374.991 145.265V157.849L379.205 159.083L378.794 144.351Z" fill="#257146" stroke="#263238" stroke-linecap="round" stroke-linejoin="round"/>
<path d="M305.078 137.408L305.261 180.061L375.996 187.393L375.322 200.891L401.371 178.542L378.794 144.351L378.737 157.861L305.078 137.408Z" fill="#263238" stroke="#263238" stroke-linecap="round" stroke-linejoin="round"/>
<path d="M305.078 137.408L299.368 138.047L300.087 181.934L305.261 180.061L305.078 137.408Z" fill="#257146" stroke="#263238" stroke-linecap="round" stroke-linejoin="round"/>
<path d="M300.087 181.934L372.776 189.129L375.996 187.393L305.261 180.061L300.087 181.934Z" fill="#257146" stroke="#263238" stroke-linecap="round" stroke-linejoin="round"/>
<path d="M372.776 189.129L372.593 201.04L375.322 200.891L375.996 187.393L372.776 189.129Z" fill="#257146" stroke="#263238" stroke-linecap="round" stroke-linejoin="round"/>
<path d="M23.2169 306.242C23.2169 306.242 121.634 257.696 271.282 282.477C388.531 301.891 427.131 352.048 427.131 352.048" fill="white"/>
<path d="M23.2169 306.242C23.2169 306.242 121.634 257.696 271.282 282.477C388.531 301.891 427.131 352.048 427.131 352.048" stroke="#263238" stroke-linecap="round" stroke-linejoin="round"/>
<path d="M191.548 284.727L173.104 277.269C81.9728 281.837 24.8728 310.387 24.8728 310.387L17.4498 312.078C11.4165 314.86 5.58565 318.062 0 321.659L27.0882 322.093L73.5105 319.067L40.1984 331.149L72.4827 324.08L125.94 322.059L94.6604 313.996L143.07 308.949L97.6638 309.953L134.208 302.496L181.464 294.822L164.334 293.806L168.571 292.401L191.548 284.727Z" fill="#257146"/>
<path d="M306.376 292.093L316.654 298.374L291.53 297.803L302.95 304.084L296.098 306.368L312.657 314.362L296.669 316.646L312.086 329.208L227.007 329.779L250.989 338.915L241.853 342.912L300.095 352.048L363.476 368.036L336.639 353.19C336.639 353.19 397.736 369.749 400.02 370.891C402.304 372.033 415.437 377.172 417.15 377.743C418.863 378.314 396.594 360.613 396.594 360.613L419.434 366.323L396.594 340.628L406.872 341.77L399.449 335.489L414.295 341.77C414.295 341.77 373.183 308.652 306.376 292.093Z" fill="#257146"/>
</svg>
